<?xml version="1.0" encoding="UTF-8" standalone="no"?>
<!-- Generator: Adobe Illustrator 18.0.0, SVG Export Plug-In . SVG Version: 6.00 Build 0)  -->

<svg
   version="1.1"
   id="Capa_1"
   x="0px"
   y="0px"
   viewBox="0 0 457.29 457.29"
   style="enable-background:new 0 0 457.29 457.29;"
   xml:space="preserve"
   sodipodi:docname="arrow.svg"
   inkscape:version="1.1.2 (0a00cf5339, 2022-02-04)"
   xmlns:inkscape="http://www.inkscape.org/namespaces/inkscape"
   xmlns:sodipodi="http://sodipodi.sourceforge.net/DTD/sodipodi-0.dtd"
   xmlns="http://www.w3.org/2000/svg"
   xmlns:svg="http://www.w3.org/2000/svg"><defs
   id="defs139" /><sodipodi:namedview
   id="namedview137"
   pagecolor="#ffffff"
   bordercolor="#666666"
   borderopacity="1.0"
   inkscape:pageshadow="2"
   inkscape:pageopacity="0.0"
   inkscape:pagecheckerboard="0"
   showgrid="false"
   inkscape:zoom="1.7647445"
   inkscape:cx="228.645"
   inkscape:cy="228.645"
   inkscape:window-width="1920"
   inkscape:window-height="1016"
   inkscape:window-x="0"
   inkscape:window-y="27"
   inkscape:window-maximized="1"
   inkscape:current-layer="Capa_1" />
<g
   id="g104"
   transform="matrix(0.64910169,0,0,1.0550383,84.572044,-15.765912)"
   style="fill:#3b3b44;fill-opacity:1">
	<path
   style="fill:#3b3b44;fill-opacity:1"
   d="m 312.925,219.28 c 5.172,5.172 5.172,13.558 0,18.73 L 253,297.935 v 115 L 425.79,240.145 253,67.355 v 92 z"
   id="path96" />
	<path
   style="fill:#3b3b44;fill-opacity:1"
   d="m 79.925,219.28 c 5.172,5.172 5.172,13.558 0,18.73 L 20,297.935 v 115 L 192.79,240.145 20,67.355 v 92 z"
   id="path98" />
	<path
   style="fill:#3b3b44;fill-opacity:1"
   d="M 253,44.355 437.29,228.645 253,412.935 v -115 l 59.925,-59.925 c 5.172,-5.172 5.172,-13.558 0,-18.73 L 253,159.355 v -115 m -0.004,-20.001 c -2.577,0 -5.175,0.498 -7.649,1.523 C 237.873,28.973 233,36.266 233,44.355 v 115 c 0,5.304 2.107,10.391 5.858,14.142 l 55.148,55.148 -55.148,55.148 c -3.751,3.751 -5.858,8.838 -5.858,14.142 v 115 c 0,8.089 4.873,15.382 12.346,18.478 2.474,1.025 5.073,1.523 7.649,1.523 5.205,0 10.32,-2.032 14.147,-5.859 l 184.29,-184.29 c 7.811,-7.811 7.811,-20.474 0,-28.284 L 267.142,30.213 c -3.826,-3.826 -8.942,-5.859 -14.146,-5.859 z"
   id="path100" />
	<path
   style="fill:#3b3b44;fill-opacity:1"
   d="M 20,44.355 204.29,228.645 20,412.935 v -115 L 79.925,238.01 c 5.172,-5.172 5.172,-13.558 0,-18.73 L 20,159.355 v -115 M 19.996,24.354 c -2.577,0 -5.175,0.498 -7.649,1.523 C 4.873,28.973 0,36.266 0,44.355 v 115 c 0,5.304 2.107,10.391 5.858,14.142 L 61.006,228.645 5.858,283.793 C 2.107,287.544 0,292.631 0,297.935 v 115 c 0,8.089 4.873,15.382 12.346,18.478 2.474,1.025 5.073,1.523 7.649,1.523 5.205,0 10.32,-2.032 14.147,-5.859 l 184.29,-184.29 c 7.81,-7.811 7.81,-20.474 0,-28.284 L 34.142,30.213 C 30.316,26.387 25.2,24.354 19.996,24.354 Z"
   id="path102" />
</g>
<g
   id="g106">
</g>
<g
   id="g108">
</g>
<g
   id="g110">
</g>
<g
   id="g112">
</g>
<g
   id="g114">
</g>
<g
   id="g116">
</g>
<g
   id="g118">
</g>
<g
   id="g120">
</g>
<g
   id="g122">
</g>
<g
   id="g124">
</g>
<g
   id="g126">
</g>
<g
   id="g128">
</g>
<g
   id="g130">
</g>
<g
   id="g132">
</g>
<g
   id="g134">
</g>
</svg>
