<svg viewBox="0 0 457.29 457.29" style="enable-background:new 0 0 457.29 457.29" xml:space="preserve" xmlns="http://www.w3.org/2000/svg"><g style="fill:#3b3b44;fill-opacity:1"><path style="fill:#3b3b44;fill-opacity:1" d="M312.925 219.28c5.172 5.172 5.172 13.558 0 18.73L253 297.935v115l172.79-172.79L253 67.355v92zM79.925 219.28c5.172 5.172 5.172 13.558 0 18.73L20 297.935v115l172.79-172.79L20 67.355v92z" transform="matrix(.6491 0 0 1.05504 84.572 -15.766)"/><path style="fill:#3b3b44;fill-opacity:1" d="m253 44.355 184.29 184.29L253 412.935v-115l59.925-59.925c5.172-5.172 5.172-13.558 0-18.73L253 159.355v-115m-.004-20.001A20.001 20.001 0 0 0 233 44.355v115a20 20 0 0 0 5.858 14.142l55.148 55.148-55.148 55.148A20 20 0 0 0 233 297.935v115a20.002 20.002 0 0 0 19.995 20.001c5.205 0 10.32-2.032 14.147-5.859l184.29-184.29c7.811-7.811 7.811-20.474 0-28.284l-184.29-184.29a19.998 19.998 0 0 0-14.146-5.859zM20 44.355l184.29 184.29L20 412.935v-115l59.925-59.925c5.172-5.172 5.172-13.558 0-18.73L20 159.355v-115m-.004-20.001A20.001 20.001 0 0 0 0 44.355v115a20 20 0 0 0 5.858 14.142l55.148 55.148-55.148 55.148A20 20 0 0 0 0 297.935v115a20.002 20.002 0 0 0 19.995 20.001c5.205 0 10.32-2.032 14.147-5.859l184.29-184.29c7.81-7.811 7.81-20.474 0-28.284L34.142 30.213a19.998 19.998 0 0 0-14.146-5.859Z" transform="matrix(.6491 0 0 1.05504 84.572 -15.766)"/></g></svg>